<?xml version="1.0" encoding="UTF-8"?>
<svg xmlns="http://www.w3.org/2000/svg" xmlns:xlink="http://www.w3.org/1999/xlink" width="345.1pt" height="134.27pt" viewBox="0 0 345.1 134.27" version="1.1">
<defs>
<clipPath id="clip1">
  <path d="M 0 53 L 117 53 L 117 134.269531 L 0 134.269531 Z M 0 53 "/>
</clipPath>
<clipPath id="clip2">
  <path d="M 282 32 L 345.101563 32 L 345.101563 101 L 282 101 Z M 282 32 "/>
</clipPath>
</defs>
<g id="surface1">
<path style=" stroke:none;fill-rule:nonzero;fill:rgb(42.698669%,43.099976%,44.299316%);fill-opacity:1;" d="M 58.179688 0.00390625 L 0 33.613281 L 0 63.320313 L 58.179688 29.476563 L 90.902344 48.25 L 84.390625 52.035156 L 58.179688 36.960938 L 35.382813 50.148438 L 87.480469 80.3125 L 116.363281 63.40625 L 116.363281 33.613281 L 58.179688 0.00390625 "/>
<g clip-path="url(#clip1)" clip-rule="nonzero">
<path style=" stroke:none;fill-rule:nonzero;fill:rgb(43.528748%,74.900818%,29.019165%);fill-opacity:1;" d="M 58.179688 134.269531 L 116.363281 100.734375 L 116.363281 70.953125 L 58.179688 104.796875 L 25.457031 86.023438 L 31.972656 82.242188 L 58.179688 97.3125 L 80.980469 84.128906 L 28.882813 53.960938 L 0 70.867188 L 0 100.734375 L 58.179688 134.269531 "/>
</g>
<path style=" stroke:none;fill-rule:nonzero;fill:rgb(42.698669%,43.099976%,44.299316%);fill-opacity:1;" d="M 196.667969 41.585938 C 189.597656 41.585938 184.015625 44.03125 179.914063 48.914063 C 175.984375 53.542969 174.019531 59.386719 174.019531 66.457031 C 174.019531 73.523438 175.984375 79.371094 179.914063 83.996094 C 184.015625 88.882813 189.597656 91.328125 196.667969 91.328125 C 203.648438 91.328125 209.316406 88.882813 213.683594 83.996094 C 217.785156 79.371094 219.835938 73.523438 219.835938 66.457031 C 219.835938 59.386719 217.785156 53.542969 213.683594 48.914063 C 209.316406 44.03125 203.648438 41.585938 196.667969 41.585938 M 174.542969 44.203125 C 179.78125 36.523438 187.589844 32.683594 197.976563 32.683594 C 207.402344 32.683594 215.035156 35.957031 220.882813 42.503906 C 226.726563 48.964844 229.652344 56.945313 229.652344 66.457031 C 229.652344 75.96875 226.726563 83.953125 220.882813 90.410156 C 215.035156 96.953125 207.179688 100.226563 197.320313 100.226563 C 187.460938 100.226563 179.867188 96.34375 174.542969 88.574219 L 174.542969 125.097656 L 164.730469 125.097656 L 164.730469 33.730469 L 174.542969 33.730469 L 174.542969 44.203125 "/>
<path style=" stroke:none;fill-rule:nonzero;fill:rgb(42.698669%,43.099976%,44.299316%);fill-opacity:1;" d="M 250.070313 99.179688 L 250.070313 42.371094 L 236.71875 42.371094 L 236.71875 33.730469 L 250.070313 33.730469 L 250.070313 10.300781 L 259.890625 10.300781 L 259.890625 33.730469 L 274.941406 33.730469 L 274.941406 42.371094 L 259.890625 42.371094 L 259.890625 99.179688 L 250.070313 99.179688 "/>
<g clip-path="url(#clip2)" clip-rule="nonzero">
<path style=" stroke:none;fill-rule:nonzero;fill:rgb(42.698669%,43.099976%,44.299316%);fill-opacity:1;" d="M 316.304688 91.324219 C 320.492188 91.324219 324.203125 90.148438 327.429688 87.789063 C 330.660156 85.433594 333.015625 82.382813 334.496094 78.628906 L 345.101563 78.628906 C 343.09375 85.085938 339.429688 90.28125 334.105469 94.203125 C 328.519531 98.21875 321.890625 100.226563 314.210938 100.226563 C 304.609375 100.226563 296.800781 96.953125 290.777344 90.40625 C 284.933594 84.039063 282.011719 76.054688 282.011719 66.453125 C 282.011719 56.855469 284.933594 48.871094 290.777344 42.5 C 296.800781 35.957031 304.609375 32.683594 314.210938 32.683594 C 321.890625 32.683594 328.519531 34.695313 334.105469 38.707031 C 339.429688 42.628906 343.09375 47.824219 345.101563 54.28125 L 334.496094 54.28125 C 333.015625 50.53125 330.660156 47.476563 327.429688 45.121094 C 324.203125 42.761719 320.492188 41.585938 316.304688 41.585938 C 312.117188 41.585938 308.5625 42.238281 305.636719 43.546875 C 302.710938 44.855469 300.246094 46.648438 298.242188 48.914063 C 293.964844 53.628906 291.828125 59.476563 291.828125 66.453125 C 291.828125 73.4375 293.964844 79.28125 298.242188 83.996094 C 302.601563 88.882813 308.625 91.324219 316.304688 91.324219 "/>
</g>
</g>
</svg>
